<svg width="55" height="60" viewBox="0 0 61 60" fill="none" xmlns="http://www.w3.org/2000/svg">
<g filter="url(#filter0_d_1_879)">
<circle cx="28.5933" cy="28" r="20" fill="#6C91BF"/>
</g>
<path d="M32.4344 15.5H24.7651C17.7599 15.5 16.0933 17.1666 16.0933 24.1588V31.8281C16.0933 38.8333 17.7469 40.5 24.7521 40.5H32.4214C39.4266 40.5 41.0933 38.8463 41.0933 31.8411V24.1719C41.0933 17.1666 39.4396 15.5 32.4344 15.5ZM36.2755 33.3385H34.4526C33.7626 33.3385 33.5542 32.7786 32.3172 31.5416C31.2365 30.5 30.7808 30.3698 30.5073 30.3698C30.1297 30.3698 30.0255 30.4739 30.0255 30.9948V32.6354C30.0255 33.0781 29.8823 33.3385 28.7235 33.3385C27.599 33.263 26.5085 32.9213 25.5419 32.3418C24.5752 31.7623 23.7601 30.9614 23.1636 30.0052C21.7475 28.2425 20.7621 26.1738 20.286 23.9635C20.286 23.6901 20.3901 23.4427 20.911 23.4427H22.7339C23.2026 23.4427 23.3719 23.651 23.5542 24.1328C24.4396 26.7369 25.9501 29.0026 26.562 29.0026C26.7964 29.0026 26.9005 28.8984 26.9005 28.3125V25.6302C26.8224 24.4062 26.1714 24.302 26.1714 23.8594C26.18 23.7426 26.2337 23.6337 26.3212 23.5559C26.4088 23.4781 26.5231 23.4375 26.6401 23.4427H29.5047C29.8954 23.4427 30.0255 23.638 30.0255 24.1067V27.7266C30.0255 28.1172 30.1948 28.2473 30.312 28.2473C30.5464 28.2473 30.7286 28.1172 31.1583 27.6875C32.0817 26.5615 32.8362 25.307 33.3979 23.9635C33.4553 23.8019 33.564 23.6634 33.7074 23.5694C33.8509 23.4753 34.0211 23.4308 34.1922 23.4427H36.0151C36.562 23.4427 36.6792 23.7161 36.562 24.1067C35.8987 25.5921 35.0781 27.0021 34.1141 28.3125C33.9188 28.6119 33.8407 28.7682 34.1141 29.1198C34.2964 29.3932 34.9344 29.927 35.3641 30.4348C35.9891 31.0583 36.5081 31.7796 36.9005 32.5703C37.0568 33.0781 36.7964 33.3385 36.2755 33.3385Z" fill="url(#paint0_linear_1_879)"/>
<defs>
<filter id="filter0_d_1_879" x="0.593262" y="0" width="60" height="60" filterUnits="userSpaceOnUse" color-interpolation-filters="sRGB">
<feFlood flood-opacity="0" result="BackgroundImageFix"/>
<feColorMatrix in="SourceAlpha" type="matrix" values="0 0 0 0 0 0 0 0 0 0 0 0 0 0 0 0 0 0 127 0" result="hardAlpha"/>
<feOffset dx="2" dy="2"/>
<feGaussianBlur stdDeviation="5"/>
<feComposite in2="hardAlpha" operator="out"/>
<feColorMatrix type="matrix" values="0 0 0 0 0 0 0 0 0 0 0 0 0 0 0 0 0 0 0.15 0"/>
<feBlend mode="normal" in2="BackgroundImageFix" result="effect1_dropShadow_1_879"/>
<feBlend mode="normal" in="SourceGraphic" in2="effect1_dropShadow_1_879" result="shape"/>
</filter>
<linearGradient id="paint0_linear_1_879" x1="16.0933" y1="15.5" x2="42.2548" y2="16.9034" gradientUnits="userSpaceOnUse">
<stop stop-color="#E9F0FF"/>
<stop offset="1" stop-color="white"/>
</linearGradient>
</defs>
</svg>
