<svg width="55" height="60" viewBox="0 0 61 60" fill="none" xmlns="http://www.w3.org/2000/svg"><g filter="url(#a)"><circle cx="28.593" cy="28" r="20" fill="#6C91BF"/></g><path d="M42.343 25.137c.062-1.789-.33-3.564-1.137-5.162a3.65 3.65 0 0 0-2.15-1.25 97.934 97.934 0 0 0-10.463-.388c-3.479-.06-6.959.066-10.425.375a3.587 3.587 0 0 0-1.825.925c-1.125 1.038-1.25 2.813-1.375 4.313a60.382 60.382 0 0 0 0 8.1c.036.844.162 1.682.375 2.5.151.631.456 1.215.888 1.7.509.504 1.158.844 1.862.975 2.695.333 5.41.47 8.125.413 4.375.062 8.213 0 12.75-.35a3.6 3.6 0 0 0 1.913-.975c.35-.35.611-.78.762-1.25.447-1.372.667-2.808.65-4.25.05-.7.05-4.925.05-5.675Zm-16.575 6.425v-7.737l7.4 3.887c-2.075 1.15-4.812 2.45-7.4 3.85Z" fill="url(#b)"/><defs><linearGradient id="b" x1="14.832" y1="18.323" x2="43.544" y2="20.515" gradientUnits="userSpaceOnUse"><stop stop-color="#E9F0FF"/><stop offset="1" stop-color="#fff"/></linearGradient><filter id="a" x=".593" y="0" width="60" height="60" filterUnits="userSpaceOnUse" color-interpolation-filters="sRGB"><feFlood flood-opacity="0" result="BackgroundImageFix"/><feColorMatrix in="SourceAlpha" values="0 0 0 0 0 0 0 0 0 0 0 0 0 0 0 0 0 0 127 0" result="hardAlpha"/><feOffset dx="2" dy="2"/><feGaussianBlur stdDeviation="5"/><feComposite in2="hardAlpha" operator="out"/><feColorMatrix values="0 0 0 0 0 0 0 0 0 0 0 0 0 0 0 0 0 0 0.15 0"/><feBlend in2="BackgroundImageFix" result="effect1_dropShadow_1_873"/><feBlend in="SourceGraphic" in2="effect1_dropShadow_1_873" result="shape"/></filter></defs></svg>