<svg width="55" height="60" viewBox="0 0 61 60" fill="none" xmlns="http://www.w3.org/2000/svg">
<g filter="url(#filter0_d_1_870)">
<circle cx="28.5933" cy="28" r="20" fill="#6C91BF"/>
</g>
<path d="M28.5933 24.9C27.9801 24.9 27.3808 25.0818 26.871 25.4224C26.3612 25.7631 25.9639 26.2472 25.7292 26.8137C25.4946 27.3801 25.4332 28.0034 25.5528 28.6048C25.6724 29.2061 25.9677 29.7585 26.4012 30.192C26.8348 30.6256 27.3871 30.9208 27.9885 31.0404C28.5898 31.16 29.2131 31.0987 29.7796 30.864C30.346 30.6294 30.8302 30.2321 31.1708 29.7223C31.5115 29.2125 31.6933 28.6131 31.6933 28C31.6933 27.5929 31.6131 27.1898 31.4573 26.8137C31.3015 26.4376 31.0732 26.0958 30.7853 25.808C30.4974 25.5201 30.1557 25.2918 29.7796 25.136C29.4035 24.9802 29.0004 24.9 28.5933 24.9V24.9ZM41.0058 21.8375C40.9992 20.8722 40.8214 19.9157 40.4808 19.0125C40.2299 18.3516 39.8417 17.7514 39.3418 17.2515C38.8419 16.7516 38.2417 16.3634 37.5808 16.1125C36.6775 15.7718 35.7211 15.5941 34.7558 15.5875C33.1433 15.5 32.6683 15.5 28.5933 15.5C24.5183 15.5 24.0433 15.5 22.4308 15.5875C21.4655 15.5941 20.509 15.7718 19.6058 16.1125C18.9448 16.3634 18.3446 16.7516 17.8447 17.2515C17.3449 17.7514 16.9567 18.3516 16.7058 19.0125C16.3651 19.9157 16.1873 20.8722 16.1808 21.8375C16.0933 23.45 16.0933 23.925 16.0933 28C16.0933 32.075 16.0933 32.55 16.1808 34.1625C16.1942 35.1312 16.3717 36.0906 16.7058 37C16.9555 37.6579 17.3434 38.2546 17.8433 38.75C18.341 39.2529 18.9425 39.6411 19.6058 39.8875C20.509 40.2282 21.4655 40.4059 22.4308 40.4125C24.0433 40.5 24.5183 40.5 28.5933 40.5C32.6683 40.5 33.1433 40.5 34.7558 40.4125C35.7211 40.4059 36.6775 40.2282 37.5808 39.8875C38.244 39.6411 38.8455 39.2529 39.3433 38.75C39.8431 38.2546 40.231 37.6579 40.4808 37C40.8211 36.0924 40.9988 35.1318 41.0058 34.1625C41.0933 32.55 41.0933 32.075 41.0933 28C41.0933 23.925 41.0933 23.45 41.0058 21.8375V21.8375ZM37.8308 31.8375C37.7906 32.6089 37.626 33.3687 37.3433 34.0875C37.1006 34.6871 36.7398 35.2318 36.2825 35.6892C35.8251 36.1466 35.2804 36.5073 34.6808 36.75C33.9552 37.017 33.1911 37.1647 32.4183 37.1875C31.4308 37.1875 31.1683 37.1875 28.5933 37.1875C26.0183 37.1875 25.7558 37.1875 24.7683 37.1875C23.9954 37.1647 23.2314 37.017 22.5058 36.75C21.8859 36.5196 21.3261 36.1522 20.8683 35.675C20.4153 35.2266 20.0656 34.6848 19.8433 34.0875C19.5752 33.3626 19.4315 32.5977 19.4183 31.825C19.4183 30.8375 19.4183 30.575 19.4183 28C19.4183 25.425 19.4183 25.1625 19.4183 24.175C19.4315 23.4023 19.5752 22.6374 19.8433 21.9125C20.0736 21.2926 20.4411 20.7328 20.9183 20.275C21.3687 19.8245 21.9098 19.4751 22.5058 19.25C23.2314 18.983 23.9954 18.8353 24.7683 18.8125V18.8125C25.7558 18.8125 26.0183 18.8125 28.5933 18.8125C31.1683 18.8125 31.4308 18.8125 32.4183 18.8125C33.1911 18.8353 33.9552 18.983 34.6808 19.25C35.3006 19.4804 35.8604 19.8478 36.3183 20.325C36.7712 20.7734 37.121 21.3152 37.3433 21.9125C37.6103 22.6381 37.758 23.4022 37.7808 24.175C37.7808 25.1625 37.7808 25.425 37.7808 28C37.7808 30.575 37.8683 30.8375 37.8308 31.825V31.8375ZM35.8308 22.5375C35.6819 22.1337 35.4473 21.7671 35.143 21.4628C34.8387 21.1585 34.472 20.9238 34.0683 20.775C33.5139 20.5828 32.9299 20.4897 32.3433 20.5C31.3683 20.5 31.0933 20.5 28.5933 20.5C26.0933 20.5 25.8183 20.5 24.8433 20.5C24.2536 20.5058 23.6696 20.6158 23.1183 20.825C22.7207 20.9671 22.3579 21.1921 22.054 21.4853C21.7501 21.7784 21.5121 22.1328 21.3558 22.525C21.1742 23.0817 21.0855 23.6645 21.0933 24.25C21.0933 25.225 21.0933 25.5 21.0933 28C21.0933 30.5 21.0933 30.775 21.0933 31.75C21.1057 32.339 21.2155 32.9219 21.4183 33.475C21.5671 33.8788 21.8017 34.2454 22.106 34.5497C22.4103 34.854 22.777 35.0887 23.1808 35.2375C23.7141 35.4336 24.2753 35.5434 24.8433 35.5625V35.5625C25.8183 35.5625 26.0933 35.5625 28.5933 35.5625C31.0933 35.5625 31.3683 35.5625 32.3433 35.5625C32.9329 35.5567 33.5169 35.4467 34.0683 35.2375C34.472 35.0887 34.8387 34.854 35.143 34.5497C35.4473 34.2454 35.6819 33.8788 35.8308 33.475C36.04 32.9237 36.15 32.3397 36.1558 31.75C36.1558 30.775 36.1558 30.5 36.1558 28C36.1558 25.5 36.1558 25.225 36.1558 24.25C36.1561 23.6597 36.0459 23.0747 35.8308 22.525V22.5375ZM28.5933 32.775C27.9668 32.775 27.3465 32.6514 26.7678 32.4113C26.1892 32.1712 25.6636 31.8192 25.2212 31.3757C24.7788 30.9321 24.4283 30.4056 24.1897 29.8264C23.9511 29.2471 23.8291 28.6265 23.8308 28V28C23.8308 27.0551 24.1111 26.1314 24.6364 25.3459C25.1616 24.5603 25.9081 23.9483 26.7813 23.5873C27.6546 23.2263 28.6153 23.1324 29.5419 23.3177C30.4685 23.5029 31.3193 23.959 31.9866 24.628C32.6539 25.2971 33.1077 26.149 33.2905 27.0761C33.4734 28.0032 33.377 28.9637 33.0137 29.836C32.6504 30.7083 32.0364 31.4532 31.2495 31.9764C30.4626 32.4995 29.5382 32.7775 28.5933 32.775V32.775ZM33.5933 24.1625C33.3169 24.1333 33.0612 24.0028 32.8754 23.7962C32.6895 23.5897 32.5867 23.3216 32.5867 23.0437C32.5867 22.7659 32.6895 22.4978 32.8754 22.2913C33.0612 22.0847 33.3169 21.9542 33.5933 21.925V21.925C33.8696 21.9542 34.1253 22.0847 34.3112 22.2913C34.497 22.4978 34.5998 22.7659 34.5998 23.0437C34.5998 23.3216 34.497 23.5897 34.3112 23.7962C34.1253 24.0028 33.8696 24.1333 33.5933 24.1625Z" fill="url(#paint0_linear_1_870)"/>
<defs>
<filter id="filter0_d_1_870" x="0.593262" y="0" width="60" height="60" filterUnits="userSpaceOnUse" color-interpolation-filters="sRGB">
<feFlood flood-opacity="0" result="BackgroundImageFix"/>
<feColorMatrix in="SourceAlpha" type="matrix" values="0 0 0 0 0 0 0 0 0 0 0 0 0 0 0 0 0 0 127 0" result="hardAlpha"/>
<feOffset dx="2" dy="2"/>
<feGaussianBlur stdDeviation="5"/>
<feComposite in2="hardAlpha" operator="out"/>
<feColorMatrix type="matrix" values="0 0 0 0 0 0 0 0 0 0 0 0 0 0 0 0 0 0 0.15 0"/>
<feBlend mode="normal" in2="BackgroundImageFix" result="effect1_dropShadow_1_870"/>
<feBlend mode="normal" in="SourceGraphic" in2="effect1_dropShadow_1_870" result="shape"/>
</filter>
<linearGradient id="paint0_linear_1_870" x1="16.0933" y1="15.5" x2="42.2548" y2="16.9034" gradientUnits="userSpaceOnUse">
<stop stop-color="#E9F0FF"/>
<stop offset="1" stop-color="white"/>
</linearGradient>
</defs>
</svg>
