<svg width="55" height="60" viewBox="0 0 61 60" fill="none" xmlns="http://www.w3.org/2000/svg"><g filter="url(#a)"><circle cx="28.593" cy="28" r="20" fill="#6C91BF"/></g><path d="M28.586 15.5a12.5 12.5 0 1 0 0 25 12.5 12.5 0 0 0 0-25Zm3.975 18.94a.883.883 0 0 1-1.253.44l-3.393-2.637-2.178 2.01a.375.375 0 0 1-.356.048l.417-3.735.014.01.008-.074s6.106-5.559 6.355-5.796c.252-.236.169-.287.169-.287.014-.288-.452 0-.452 0l-8.09 5.205-3.37-1.148s-.518-.185-.566-.593c-.052-.405.583-.625.583-.625l13.396-5.322s1.101-.491 1.101.322L32.561 34.44Z" fill="url(#b)"/><defs><linearGradient id="b" x1="16.086" y1="15.5" x2="42.248" y2="16.903" gradientUnits="userSpaceOnUse"><stop stop-color="#E9F0FF"/><stop offset="1" stop-color="#fff"/></linearGradient><filter id="a" x=".593" y="0" width="60" height="60" filterUnits="userSpaceOnUse" color-interpolation-filters="sRGB"><feFlood flood-opacity="0" result="BackgroundImageFix"/><feColorMatrix in="SourceAlpha" values="0 0 0 0 0 0 0 0 0 0 0 0 0 0 0 0 0 0 127 0" result="hardAlpha"/><feOffset dx="2" dy="2"/><feGaussianBlur stdDeviation="5"/><feComposite in2="hardAlpha" operator="out"/><feColorMatrix values="0 0 0 0 0 0 0 0 0 0 0 0 0 0 0 0 0 0 0.15 0"/><feBlend in2="BackgroundImageFix" result="effect1_dropShadow_1_876"/><feBlend in="SourceGraphic" in2="effect1_dropShadow_1_876" result="shape"/></filter></defs></svg>